<svg id="ic_apple" xmlns="http://www.w3.org/2000/svg" width="44.703" height="44.703" viewBox="0 0 44.703 44.703">
  <circle id="XMLID_30_" cx="22.351" cy="22.351" r="22.351" transform="translate(0 0)" fill="#373737"/>
  <path id="Combined_Shape" data-name="Combined Shape" d="M5.684,25.188a5.9,5.9,0,0,1-2.148-1.647A15.052,15.052,0,0,1,.959,19.228a13.39,13.39,0,0,1-.653-2.01,11.639,11.639,0,0,1-.3-3.173,8.711,8.711,0,0,1,.438-2.384A7.37,7.37,0,0,1,1.6,9.449,5.725,5.725,0,0,1,4.283,7.439a6.123,6.123,0,0,1,2.768-.283,16.339,16.339,0,0,1,2.714.586,3.863,3.863,0,0,0,2.245-.091A13.377,13.377,0,0,1,14.9,6.994a6.286,6.286,0,0,1,3.976,1.121,7.275,7.275,0,0,1,1.39,1.313.542.542,0,0,1-.075.758c-.364.344-.738.677-1.1,1.021a3.945,3.945,0,0,0-1.122,1.93,4.6,4.6,0,0,0,1.592,4.617,3.763,3.763,0,0,0,1.091.636.559.559,0,0,1,.331.778,13.115,13.115,0,0,1-1.786,3.4,8.159,8.159,0,0,1-2.479,2.4,3.4,3.4,0,0,1-2.661.354c-.63-.161-1.239-.374-1.87-.555a4.135,4.135,0,0,0-1.828-.182,6.317,6.317,0,0,0-1.143.313A9.478,9.478,0,0,1,7.4,25.42a2.957,2.957,0,0,1-.452.035A3.275,3.275,0,0,1,5.684,25.188ZM9.755,5.994V5.762A6.3,6.3,0,0,1,11.219,1.9,5.383,5.383,0,0,1,13.208.518a8.459,8.459,0,0,1,1.561-.5.639.639,0,0,1,.833.7c-.022.293-.022.575-.053.869a6.094,6.094,0,0,1-.278,1.444,5.573,5.573,0,0,1-1.079,1.748A6.576,6.576,0,0,1,12.919,5.9a4.33,4.33,0,0,1-2.116.636l-.331.031a.933.933,0,0,1-.13.009A.547.547,0,0,1,9.755,5.994Z" transform="translate(11.068 7.747)" fill="#fff"/>
</svg>
