<svg id="ic_facebook" xmlns="http://www.w3.org/2000/svg" xmlns:xlink="http://www.w3.org/1999/xlink" width="44.703" height="44.703" viewBox="0 0 44.703 44.703">
  <defs>
    <clipPath id="clip-path">
      <path id="Clip_2" data-name="Clip 2" d="M0,0H12.453V12.469H0Z" fill="none"/>
    </clipPath>
  </defs>
  <circle id="Oval" cx="22.351" cy="22.351" r="22.351" transform="translate(0 0)" fill="#017ab8"/>
  <g id="Group_8" data-name="Group 8" transform="translate(13 14)">
    <g id="Group_3" data-name="Group 3" transform="translate(6.547 5.531)">
      <path id="Clip_2-2" data-name="Clip 2" d="M0,0H12.453V12.469H0Z" fill="none"/>
      <g id="Group_3-2" data-name="Group 3" clip-path="url(#clip-path)">
        <path id="Fill_1" data-name="Fill 1" d="M4.079,1.92a6.135,6.135,0,0,1,1.43-1.3,4.54,4.54,0,0,1,6.613,2.574,8.342,8.342,0,0,1,.324,2.374c0,2.2,0,4.4.007,6.6,0,.247-.062.311-.311.308q-1.73-.021-3.461,0c-.254,0-.31-.07-.309-.312.01-2,.008-4,0-6a5.8,5.8,0,0,0-.181-1.5,2.024,2.024,0,0,0-3.336-.882,2.6,2.6,0,0,0-.783,2.057c0,2.089-.005,4.178.009,6.266,0,.308-.088.378-.385.374-1.131-.017-2.263-.015-3.394,0-.258,0-.307-.076-.307-.315C.013,8.305.054,4.457,0,.61,0,.378.061.313.3.316q1.747.018,3.494,0c.236,0,.3.068.294.3-.017.435,0,.872,0,1.308" fill="#eff1f1"/>
      </g>
    </g>
    <path id="Fill_4" data-name="Fill 4" d="M.006,6.041c0-1.9,0-3.8-.005-5.706C0,.086.049,0,.324,0,1.477.017,2.632.013,3.785,0c.231,0,.3.059.3.292q-.011,5.789,0,11.578c0,.247-.09.283-.307.281-1.154-.01-2.308-.012-3.461,0C.068,12.157,0,12.1,0,11.846c.011-1.935.006-3.87.006-5.805" transform="translate(0.22 5.845)" fill="#eff1f1"/>
    <path id="Fill_6" data-name="Fill 6" d="M0,2.112A2.125,2.125,0,0,1,2.3,0,2.113,2.113,0,0,1,4.56,2.09,2.12,2.12,0,0,1,2.255,4.2,2.1,2.1,0,0,1,0,2.112" fill="#eff1f1"/>
  </g>
</svg>
