<svg xmlns="http://www.w3.org/2000/svg" width="44.703" height="44.703" viewBox="0 0 44.703 44.703">
  <g id="ic_google" transform="translate(0 0)">
    <circle id="XMLID_30_" cx="22.351" cy="22.351" r="22.351" transform="translate(0 0)" fill="#dc4e41"/>
    <g id="Group" transform="translate(7.57 13.945)">
      <path id="Path" d="M.006,9.229a9.211,9.211,0,0,0,6.213,8.713c3.432,1.153,7.652.29,9.936-2.649a10.418,10.418,0,0,0,1.866-7.37C15.081,7.9,12.142,7.9,9.207,7.909c0,1.047,0,2.09,0,3.137,1.76.049,3.52.026,5.28.062A5.091,5.091,0,0,1,11.5,14.6,5.821,5.821,0,1,1,7.579,3.645c1.888-.664,3.833.084,5.448,1.065.818-.766,1.584-1.584,2.336-2.411A9.216,9.216,0,0,0,8.745.028,9.155,9.155,0,0,0,.006,9.229Z" transform="translate(0.206 0.178)" fill="#dc4e41"/>
      <path id="Path-2" data-name="Path" d="M2.654,0c-.009.876-.018,1.756-.022,2.631C1.751,2.64.876,2.644,0,2.649V5.271c.876,0,1.756.009,2.631.018.009.876.009,1.751.018,2.631.871,0,1.747,0,2.622,0,0-.88.009-1.755.018-2.636L7.92,5.272V2.649c-.875,0-1.755-.009-2.631-.018,0-.876-.013-1.756-.018-2.631Z" transform="translate(21.293 5.446)" fill="#dc4e41"/>
      <g id="Group-2" data-name="Group">
        <path id="Path-3" data-name="Path" d="M.006,9.229A9.155,9.155,0,0,1,8.744.028,9.216,9.216,0,0,1,15.362,2.3c-.753.828-1.518,1.646-2.336,2.411-1.615-.981-3.56-1.729-5.448-1.065A5.821,5.821,0,1,0,11.5,14.6a5.092,5.092,0,0,0,2.992-3.489c-1.76-.035-3.52-.013-5.28-.062,0-1.047-.009-2.09,0-3.137,2.935,0,5.874-.013,8.813.013a10.415,10.415,0,0,1-1.866,7.37c-2.284,2.939-6.5,3.8-9.936,2.649A9.211,9.211,0,0,1,.006,9.229Z" transform="translate(0.206 0.177)" fill="#fff"/>
        <path id="Path-4" data-name="Path" d="M2.654,0H5.271c0,.876.013,1.756.018,2.631.875.009,1.755.013,2.631.018V5.271l-2.631.013c-.009.88-.013,1.755-.018,2.636-.875,0-1.752,0-2.622,0-.008-.88-.008-1.755-.018-2.631C1.756,5.28.876,5.276,0,5.271V2.648q1.314-.007,2.631-.018C2.636,1.756,2.644.876,2.654,0Z" transform="translate(21.293 5.446)" fill="#fff"/>
      </g>
    </g>
  </g>
</svg>
