<svg id="logo" xmlns="http://www.w3.org/2000/svg" width="119" height="88" viewBox="0 0 119 88">
  <g id="text" transform="translate(0 65.249)">
    <path id="Combined_Shape" data-name="Combined Shape" d="M111.736,21.58h-7.143V18.449h1V7.934h-1V4.756h5.471l.406.837v0a4.87,4.87,0,0,1,2.89-1.026,5.266,5.266,0,0,1,4.217,1.859,6.894,6.894,0,0,1,1.421,4.4,6.489,6.489,0,0,1-1.568,4.5,5.193,5.193,0,0,1-3.879,1.646,4.743,4.743,0,0,1-3.106-.933v2.414h1.29v3.13h0Zm-.548-13.194a3.549,3.549,0,0,0-.742,2.607,3.943,3.943,0,0,0,.52,2.043,1.5,1.5,0,0,0,1.2.824c1.015,0,1.7-1.2,1.7-2.987,0-1.414-.658-2.939-1.72-2.939A1.318,1.318,0,0,0,111.189,8.387ZM25.346,16.2a3.605,3.605,0,0,1-1.5-3.035,4.071,4.071,0,0,1,1.472-3.211,5.411,5.411,0,0,1,3.5-1.186,3.411,3.411,0,0,1,2.365.837V8.771c0-.925-.7-1.338-2.269-1.338a7.475,7.475,0,0,0-3.56,1.1l-1-2.772a10.324,10.324,0,0,1,5.209-1.7,8.6,8.6,0,0,1,4.312,1.019,4.26,4.26,0,0,1,2.162,3.9v4.66h1.434v3.059H32.349l-.574-1.076a4.031,4.031,0,0,1-3.226,1.53A5.46,5.46,0,0,1,25.346,16.2Zm3.037-3.274a1.161,1.161,0,0,0,1.266,1.123,1.884,1.884,0,0,0,1.529-.789v-.908l0,0a1.532,1.532,0,0,0-1.408-.69A1.21,1.21,0,0,0,28.383,12.929Zm34.437,3.839a6.061,6.061,0,0,1-2.029-1.151,6.32,6.32,0,0,1-2.042-4.959A6.055,6.055,0,0,1,60.608,6.07a6.663,6.663,0,0,1,4.566-1.649,6.894,6.894,0,0,1,3.661.98,4.786,4.786,0,0,1,2.049,2.486,6.913,6.913,0,0,1,.047,4.039H63.406a2.193,2.193,0,0,0,2.461,1.959,4.847,4.847,0,0,0,3.345-1.147l2.007,2.318a8.667,8.667,0,0,1-6.164,2.079A7.01,7.01,0,0,1,62.819,16.769Zm.659-7.209h3.607a2.432,2.432,0,0,0-.319-1.3,1.61,1.61,0,0,0-1.448-.615A1.9,1.9,0,0,0,63.478,9.56Zm25.61,2.557V7.862H87.8V4.756h1.29v-2.2l4.4-1.41V4.756h2.27V7.862h-2.27v4.254c0,.813-.167,1.912.765,1.912a5.5,5.5,0,0,0,1.505-.406v3.059a11.123,11.123,0,0,1-2.891.454C89.28,17.135,89.16,15.175,89.088,12.117Zm-37.484,0V7.862h-1.29V4.756H51.6v-2.2L56,1.147V4.756h2.27V7.862H56v4.254c0,.813-.167,1.912.765,1.912a5.494,5.494,0,0,0,1.505-.406v3.059a11.117,11.117,0,0,1-2.891.454C51.8,17.135,51.676,15.175,51.6,12.117Zm-10.225,3.13-.215,1.458H38.178V12.4h3.2c0,1.266,1.816,1.6,2.532,1.6.478,0,1.051-.143,1.051-.812,0-.717-1.792-.837-3.512-1.433-1.624-.574-3.177-1.578-3.177-3.824,0-2.437,2.508-3.465,4.2-3.465a4,4,0,0,1,3.559,1.864l.191-1.577h2.939v4.3H46.062c0-1-1.242-1.817-2.437-1.817a.834.834,0,0,0-.932.861c0,.669,1.41.956,2.939,1.482,1.816.621,3.846,1.314,3.846,3.824,0,2.246-2.126,3.584-4.444,3.584A4.358,4.358,0,0,1,41.379,15.247ZM96.71,16.705v-3.13h1V7.862h-1V4.756h5.543v8.818H103.4v3.13Zm-24.536,0v-3.13h1.051V7.862H72.2V4.756H76.69l.716,1.53c.622-1.147,1.243-2.127,3.7-2.127v4.3c-2.15,0-3.369.549-3.369,2.653v2.461h1.194v3.13Zm-56.836,0V13.6h1.338V4.206h-.1c-.191,1.076-.526,2.653-.693,3.2l-2.508,9.3H8.386L5.71,7.17a16.252,16.252,0,0,1-.5-2.964h-.1v9.416H6.474v3.083H0V13.622H1.29V3.083H.024V0H9.079l2.413,8.938L13.785,0h9.1V3.083H21.574V13.6h1.314v3.107Z" transform="translate(0 1.171)" fill="#515151"/>
    <path id="Fill_29" data-name="Fill 29" d="M2.58,0A2.569,2.569,0,0,1,5.208,2.438,2.4,2.4,0,0,1,2.58,4.851,2.573,2.573,0,0,1,0,2.438,2.507,2.507,0,0,1,2.58,0" transform="translate(97.379)" fill="#017ab8"/>
  </g>
  <g id="shape" transform="translate(34.082 0)">
    <g id="Group">
      <path id="Fill_21" data-name="Fill 21" d="M38.369,51.238c-.3,2.681-.339,3.854-4.393,4.938L17.3,60.634c-3.659.979-4.827-3.189-1.075-4.192l14.809-3.959c2.219-.593,2.485-.681,2.964-2.543a14.081,14.081,0,0,1,3.27-6.029c1.151-1.39,2.58-2.529,4.462-4.741A21.219,21.219,0,1,0,4.85,29.979,21.06,21.06,0,0,0,9.4,39.169c2.906,3.412.637,3.628,0,2.842-1.88-1.547-3.447-.441-4.791-2.4a23.972,23.972,0,0,1-2.5-4.048A23.91,23.91,0,0,1,0,25.485,25.549,25.549,0,1,1,41.8,45.149c-2.181,2.687-3.028,2.442-3.434,6.089" transform="translate(0 0)" fill="#017ab8"/>
      <path id="Fill_23" data-name="Fill 23" d="M24.242,19.681a1.633,1.633,0,0,1-.566,1.3,1.844,1.844,0,0,1-1.151.412,1.775,1.775,0,0,1-1.1-.4,1.618,1.618,0,0,1-.583-1.219q-.173-1.476-.395-3.16t-.5-3.418q-.276-1.733-.636-3.434T18.542,6.56q-.55,1.305-1.048,2.662t-1.048,2.8q-.687,1.854-1.373,3.709t-1.408,3.538a1.92,1.92,0,0,1-1.477.687,2.232,2.232,0,0,1-1.408-.653L4.567,7.11q-.138,1.478-.275,3.006t-.275,3.108L3.365,20.2a2.187,2.187,0,0,1-.738,1.013,1.625,1.625,0,0,1-.944.326,1.7,1.7,0,0,1-1.116-.412A1.668,1.668,0,0,1,0,19.921L1.751,1.511A1.5,1.5,0,0,1,2.335.5a1.78,1.78,0,0,1,1.1-.36A1.75,1.75,0,0,1,4.91.962Q5.871,2.645,6.8,4.482T8.687,8.209Q9.58,10,10.353,11.523t1.665,3.143q.515-1.305,1.03-2.679t1.065-2.817q.789-2.129,1.6-4.225T17.34.927A1.739,1.739,0,0,1,18.92,0,1.674,1.674,0,0,1,19.9.326a1.82,1.82,0,0,1,.67.979q.617,2.1,1.184,4.4t1.065,4.672q.5,2.37.859,4.74t.566,4.568" transform="translate(13.911 16.151)" fill="#017ab8"/>
      <path id="Stroke_25" data-name="Stroke 25" d="M24.242,19.681a1.633,1.633,0,0,1-.566,1.3,1.844,1.844,0,0,1-1.151.412,1.775,1.775,0,0,1-1.1-.4,1.618,1.618,0,0,1-.583-1.219q-.173-1.476-.395-3.16t-.5-3.418q-.276-1.733-.636-3.434T18.542,6.56q-.55,1.305-1.048,2.662t-1.048,2.8q-.687,1.854-1.373,3.709t-1.408,3.538a1.92,1.92,0,0,1-1.477.687,2.232,2.232,0,0,1-1.408-.653L4.567,7.11q-.138,1.478-.275,3.006t-.275,3.108L3.365,20.2a2.187,2.187,0,0,1-.738,1.013,1.625,1.625,0,0,1-.944.326,1.7,1.7,0,0,1-1.116-.412A1.668,1.668,0,0,1,0,19.921L1.751,1.511A1.5,1.5,0,0,1,2.335.5a1.78,1.78,0,0,1,1.1-.36A1.75,1.75,0,0,1,4.91.962Q5.871,2.645,6.8,4.482T8.687,8.209Q9.58,10,10.353,11.523t1.665,3.143q.515-1.305,1.03-2.679t1.065-2.817q.789-2.129,1.6-4.225T17.34.927A1.739,1.739,0,0,1,18.92,0,1.674,1.674,0,0,1,19.9.326a1.82,1.82,0,0,1,.67.979q.617,2.1,1.184,4.4t1.065,4.672q.5,2.37.859,4.74T24.242,19.681Z" transform="translate(13.911 16.151)" fill="none" stroke="#017ab8" stroke-miterlimit="10" stroke-width="1"/>
    </g>
    <path id="Stroke_27" data-name="Stroke 27" d="M0,3.011C.182,3.011,9.167,15.379,9.7,0" transform="translate(6.014 35.16)" fill="none" stroke="#017ab8" stroke-miterlimit="10" stroke-width="8"/>
  </g>
</svg>
